<mxfile host="app.diagrams.net" modified="2020-11-02T03:32:41.679Z" agent="5.0 (Macintosh; Intel Mac OS X 10_15_6) AppleWebKit/605.1.15 (KHTML, like Gecko) Version/14.0.1 Safari/605.1.15" etag="0TDc1Oz77fzSeXR-3QgL" version="13.8.8" type="github">
  <diagram id="zpAmBCKR30L5e3rzVQzA" name="Page-1">
    <mxGraphModel dx="655" dy="373" grid="1" gridSize="10" guides="1" tooltips="1" connect="1" arrows="1" fold="1" page="1" pageScale="1" pageWidth="850" pageHeight="1100" math="0" shadow="0">
      <root>
        <mxCell id="0" />
        <mxCell id="1" parent="0" />
        <mxCell id="7cLqkMVQwKOjkI5-6gQO-14" style="edgeStyle=orthogonalEdgeStyle;rounded=0;orthogonalLoop=1;jettySize=auto;html=1;entryX=0.5;entryY=1;entryDx=0;entryDy=0;endArrow=block;endFill=0;" edge="1" parent="1" source="7cLqkMVQwKOjkI5-6gQO-1" target="7cLqkMVQwKOjkI5-6gQO-5">
          <mxGeometry relative="1" as="geometry">
            <Array as="points">
              <mxPoint x="90" y="150" />
              <mxPoint x="205" y="150" />
            </Array>
          </mxGeometry>
        </mxCell>
        <mxCell id="7cLqkMVQwKOjkI5-6gQO-1" value="Circle" style="swimlane;fontStyle=1;align=center;verticalAlign=top;childLayout=stackLayout;horizontal=1;startSize=26;horizontalStack=0;resizeParent=1;resizeParentMax=0;resizeLast=0;collapsible=1;marginBottom=0;" vertex="1" parent="1">
          <mxGeometry x="40" y="180" width="100" height="86" as="geometry" />
        </mxCell>
        <mxCell id="7cLqkMVQwKOjkI5-6gQO-2" value="   " style="text;strokeColor=none;fillColor=none;align=left;verticalAlign=top;spacingLeft=4;spacingRight=4;overflow=hidden;rotatable=0;points=[[0,0.5],[1,0.5]];portConstraint=eastwest;" vertex="1" parent="7cLqkMVQwKOjkI5-6gQO-1">
          <mxGeometry y="26" width="100" height="26" as="geometry" />
        </mxCell>
        <mxCell id="7cLqkMVQwKOjkI5-6gQO-3" value="" style="line;strokeWidth=1;fillColor=none;align=left;verticalAlign=middle;spacingTop=-1;spacingLeft=3;spacingRight=3;rotatable=0;labelPosition=right;points=[];portConstraint=eastwest;" vertex="1" parent="7cLqkMVQwKOjkI5-6gQO-1">
          <mxGeometry y="52" width="100" height="8" as="geometry" />
        </mxCell>
        <mxCell id="7cLqkMVQwKOjkI5-6gQO-4" value="+ draw(): " style="text;strokeColor=none;fillColor=none;align=left;verticalAlign=top;spacingLeft=4;spacingRight=4;overflow=hidden;rotatable=0;points=[[0,0.5],[1,0.5]];portConstraint=eastwest;" vertex="1" parent="7cLqkMVQwKOjkI5-6gQO-1">
          <mxGeometry y="60" width="100" height="26" as="geometry" />
        </mxCell>
        <mxCell id="7cLqkMVQwKOjkI5-6gQO-5" value="«interface»&lt;br&gt;&lt;b&gt;Shape&lt;/b&gt;" style="html=1;" vertex="1" parent="1">
          <mxGeometry x="150" y="80" width="110" height="50" as="geometry" />
        </mxCell>
        <mxCell id="7cLqkMVQwKOjkI5-6gQO-15" style="edgeStyle=orthogonalEdgeStyle;rounded=0;orthogonalLoop=1;jettySize=auto;html=1;entryX=0.5;entryY=1;entryDx=0;entryDy=0;endArrow=block;endFill=0;" edge="1" parent="1" source="7cLqkMVQwKOjkI5-6gQO-6" target="7cLqkMVQwKOjkI5-6gQO-5">
          <mxGeometry relative="1" as="geometry" />
        </mxCell>
        <mxCell id="7cLqkMVQwKOjkI5-6gQO-6" value="Rectangle" style="swimlane;fontStyle=1;align=center;verticalAlign=top;childLayout=stackLayout;horizontal=1;startSize=26;horizontalStack=0;resizeParent=1;resizeParentMax=0;resizeLast=0;collapsible=1;marginBottom=0;" vertex="1" parent="1">
          <mxGeometry x="157.5" y="180" width="95" height="86" as="geometry" />
        </mxCell>
        <mxCell id="7cLqkMVQwKOjkI5-6gQO-7" value="   " style="text;strokeColor=none;fillColor=none;align=left;verticalAlign=top;spacingLeft=4;spacingRight=4;overflow=hidden;rotatable=0;points=[[0,0.5],[1,0.5]];portConstraint=eastwest;" vertex="1" parent="7cLqkMVQwKOjkI5-6gQO-6">
          <mxGeometry y="26" width="95" height="26" as="geometry" />
        </mxCell>
        <mxCell id="7cLqkMVQwKOjkI5-6gQO-8" value="" style="line;strokeWidth=1;fillColor=none;align=left;verticalAlign=middle;spacingTop=-1;spacingLeft=3;spacingRight=3;rotatable=0;labelPosition=right;points=[];portConstraint=eastwest;" vertex="1" parent="7cLqkMVQwKOjkI5-6gQO-6">
          <mxGeometry y="52" width="95" height="8" as="geometry" />
        </mxCell>
        <mxCell id="7cLqkMVQwKOjkI5-6gQO-9" value="+ draw(): " style="text;strokeColor=none;fillColor=none;align=left;verticalAlign=top;spacingLeft=4;spacingRight=4;overflow=hidden;rotatable=0;points=[[0,0.5],[1,0.5]];portConstraint=eastwest;" vertex="1" parent="7cLqkMVQwKOjkI5-6gQO-6">
          <mxGeometry y="60" width="95" height="26" as="geometry" />
        </mxCell>
        <mxCell id="7cLqkMVQwKOjkI5-6gQO-16" style="edgeStyle=orthogonalEdgeStyle;rounded=0;orthogonalLoop=1;jettySize=auto;html=1;endArrow=block;endFill=0;" edge="1" parent="1" source="7cLqkMVQwKOjkI5-6gQO-10" target="7cLqkMVQwKOjkI5-6gQO-5">
          <mxGeometry relative="1" as="geometry">
            <Array as="points">
              <mxPoint x="323" y="150" />
              <mxPoint x="205" y="150" />
            </Array>
          </mxGeometry>
        </mxCell>
        <mxCell id="7cLqkMVQwKOjkI5-6gQO-10" value="Square" style="swimlane;fontStyle=1;align=center;verticalAlign=top;childLayout=stackLayout;horizontal=1;startSize=26;horizontalStack=0;resizeParent=1;resizeParentMax=0;resizeLast=0;collapsible=1;marginBottom=0;" vertex="1" parent="1">
          <mxGeometry x="270" y="180" width="105" height="86" as="geometry" />
        </mxCell>
        <mxCell id="7cLqkMVQwKOjkI5-6gQO-11" value="   " style="text;strokeColor=none;fillColor=none;align=left;verticalAlign=top;spacingLeft=4;spacingRight=4;overflow=hidden;rotatable=0;points=[[0,0.5],[1,0.5]];portConstraint=eastwest;" vertex="1" parent="7cLqkMVQwKOjkI5-6gQO-10">
          <mxGeometry y="26" width="105" height="26" as="geometry" />
        </mxCell>
        <mxCell id="7cLqkMVQwKOjkI5-6gQO-12" value="" style="line;strokeWidth=1;fillColor=none;align=left;verticalAlign=middle;spacingTop=-1;spacingLeft=3;spacingRight=3;rotatable=0;labelPosition=right;points=[];portConstraint=eastwest;" vertex="1" parent="7cLqkMVQwKOjkI5-6gQO-10">
          <mxGeometry y="52" width="105" height="8" as="geometry" />
        </mxCell>
        <mxCell id="7cLqkMVQwKOjkI5-6gQO-13" value="+ draw(): " style="text;strokeColor=none;fillColor=none;align=left;verticalAlign=top;spacingLeft=4;spacingRight=4;overflow=hidden;rotatable=0;points=[[0,0.5],[1,0.5]];portConstraint=eastwest;" vertex="1" parent="7cLqkMVQwKOjkI5-6gQO-10">
          <mxGeometry y="60" width="105" height="26" as="geometry" />
        </mxCell>
        <mxCell id="7cLqkMVQwKOjkI5-6gQO-56" style="edgeStyle=orthogonalEdgeStyle;rounded=0;orthogonalLoop=1;jettySize=auto;html=1;entryX=1.003;entryY=0.676;entryDx=0;entryDy=0;entryPerimeter=0;endArrow=open;endFill=0;dashed=1;" edge="1" parent="1" source="7cLqkMVQwKOjkI5-6gQO-23" target="7cLqkMVQwKOjkI5-6gQO-11">
          <mxGeometry relative="1" as="geometry" />
        </mxCell>
        <mxCell id="7cLqkMVQwKOjkI5-6gQO-57" value="create" style="edgeLabel;html=1;align=center;verticalAlign=middle;resizable=0;points=[];" vertex="1" connectable="0" parent="7cLqkMVQwKOjkI5-6gQO-56">
          <mxGeometry x="0.1744" y="1" relative="1" as="geometry">
            <mxPoint x="39.89" y="-14.61" as="offset" />
          </mxGeometry>
        </mxCell>
        <mxCell id="7cLqkMVQwKOjkI5-6gQO-60" style="edgeStyle=orthogonalEdgeStyle;rounded=0;orthogonalLoop=1;jettySize=auto;html=1;dashed=1;endArrow=open;endFill=0;" edge="1" parent="1" source="7cLqkMVQwKOjkI5-6gQO-23">
          <mxGeometry relative="1" as="geometry">
            <mxPoint x="200" y="270" as="targetPoint" />
            <Array as="points">
              <mxPoint x="522" y="300" />
              <mxPoint x="200" y="300" />
            </Array>
          </mxGeometry>
        </mxCell>
        <mxCell id="7cLqkMVQwKOjkI5-6gQO-61" style="edgeStyle=orthogonalEdgeStyle;rounded=0;orthogonalLoop=1;jettySize=auto;html=1;entryX=0.427;entryY=0.973;entryDx=0;entryDy=0;entryPerimeter=0;dashed=1;endArrow=open;endFill=0;" edge="1" parent="1" source="7cLqkMVQwKOjkI5-6gQO-23" target="7cLqkMVQwKOjkI5-6gQO-4">
          <mxGeometry relative="1" as="geometry">
            <Array as="points">
              <mxPoint x="522" y="300" />
              <mxPoint x="83" y="300" />
            </Array>
          </mxGeometry>
        </mxCell>
        <mxCell id="7cLqkMVQwKOjkI5-6gQO-23" value="ShapeDemo" style="swimlane;fontStyle=1;align=center;verticalAlign=top;childLayout=stackLayout;horizontal=1;startSize=26;horizontalStack=0;resizeParent=1;resizeParentMax=0;resizeLast=0;collapsible=1;marginBottom=0;" vertex="1" parent="1">
          <mxGeometry x="470" y="80" width="105" height="86" as="geometry" />
        </mxCell>
        <mxCell id="7cLqkMVQwKOjkI5-6gQO-24" value="   " style="text;strokeColor=none;fillColor=none;align=left;verticalAlign=top;spacingLeft=4;spacingRight=4;overflow=hidden;rotatable=0;points=[[0,0.5],[1,0.5]];portConstraint=eastwest;" vertex="1" parent="7cLqkMVQwKOjkI5-6gQO-23">
          <mxGeometry y="26" width="105" height="26" as="geometry" />
        </mxCell>
        <mxCell id="7cLqkMVQwKOjkI5-6gQO-25" value="" style="line;strokeWidth=1;fillColor=none;align=left;verticalAlign=middle;spacingTop=-1;spacingLeft=3;spacingRight=3;rotatable=0;labelPosition=right;points=[];portConstraint=eastwest;" vertex="1" parent="7cLqkMVQwKOjkI5-6gQO-23">
          <mxGeometry y="52" width="105" height="8" as="geometry" />
        </mxCell>
        <mxCell id="7cLqkMVQwKOjkI5-6gQO-26" value="+ main(): " style="text;strokeColor=none;fillColor=none;align=left;verticalAlign=top;spacingLeft=4;spacingRight=4;overflow=hidden;rotatable=0;points=[[0,0.5],[1,0.5]];portConstraint=eastwest;" vertex="1" parent="7cLqkMVQwKOjkI5-6gQO-23">
          <mxGeometry y="60" width="105" height="26" as="geometry" />
        </mxCell>
        <mxCell id="7cLqkMVQwKOjkI5-6gQO-27" style="edgeStyle=orthogonalEdgeStyle;rounded=0;orthogonalLoop=1;jettySize=auto;html=1;entryX=0.5;entryY=1;entryDx=0;entryDy=0;endArrow=block;endFill=0;" edge="1" parent="1" source="7cLqkMVQwKOjkI5-6gQO-28" target="7cLqkMVQwKOjkI5-6gQO-32">
          <mxGeometry relative="1" as="geometry">
            <Array as="points">
              <mxPoint x="90" y="640" />
              <mxPoint x="205" y="640" />
            </Array>
          </mxGeometry>
        </mxCell>
        <mxCell id="7cLqkMVQwKOjkI5-6gQO-28" value="Circle" style="swimlane;fontStyle=1;align=center;verticalAlign=top;childLayout=stackLayout;horizontal=1;startSize=26;horizontalStack=0;resizeParent=1;resizeParentMax=0;resizeLast=0;collapsible=1;marginBottom=0;" vertex="1" parent="1">
          <mxGeometry x="40" y="670" width="100" height="86" as="geometry" />
        </mxCell>
        <mxCell id="7cLqkMVQwKOjkI5-6gQO-29" value="   " style="text;strokeColor=none;fillColor=none;align=left;verticalAlign=top;spacingLeft=4;spacingRight=4;overflow=hidden;rotatable=0;points=[[0,0.5],[1,0.5]];portConstraint=eastwest;" vertex="1" parent="7cLqkMVQwKOjkI5-6gQO-28">
          <mxGeometry y="26" width="100" height="26" as="geometry" />
        </mxCell>
        <mxCell id="7cLqkMVQwKOjkI5-6gQO-30" value="" style="line;strokeWidth=1;fillColor=none;align=left;verticalAlign=middle;spacingTop=-1;spacingLeft=3;spacingRight=3;rotatable=0;labelPosition=right;points=[];portConstraint=eastwest;" vertex="1" parent="7cLqkMVQwKOjkI5-6gQO-28">
          <mxGeometry y="52" width="100" height="8" as="geometry" />
        </mxCell>
        <mxCell id="7cLqkMVQwKOjkI5-6gQO-31" value="+ draw(): " style="text;strokeColor=none;fillColor=none;align=left;verticalAlign=top;spacingLeft=4;spacingRight=4;overflow=hidden;rotatable=0;points=[[0,0.5],[1,0.5]];portConstraint=eastwest;" vertex="1" parent="7cLqkMVQwKOjkI5-6gQO-28">
          <mxGeometry y="60" width="100" height="26" as="geometry" />
        </mxCell>
        <mxCell id="7cLqkMVQwKOjkI5-6gQO-32" value="«interface»&lt;br&gt;&lt;b&gt;Shape&lt;/b&gt;" style="html=1;" vertex="1" parent="1">
          <mxGeometry x="150" y="570" width="110" height="50" as="geometry" />
        </mxCell>
        <mxCell id="7cLqkMVQwKOjkI5-6gQO-33" style="edgeStyle=orthogonalEdgeStyle;rounded=0;orthogonalLoop=1;jettySize=auto;html=1;entryX=0.5;entryY=1;entryDx=0;entryDy=0;endArrow=block;endFill=0;" edge="1" parent="1" source="7cLqkMVQwKOjkI5-6gQO-34" target="7cLqkMVQwKOjkI5-6gQO-32">
          <mxGeometry relative="1" as="geometry" />
        </mxCell>
        <mxCell id="7cLqkMVQwKOjkI5-6gQO-34" value="Rectangle" style="swimlane;fontStyle=1;align=center;verticalAlign=top;childLayout=stackLayout;horizontal=1;startSize=26;horizontalStack=0;resizeParent=1;resizeParentMax=0;resizeLast=0;collapsible=1;marginBottom=0;" vertex="1" parent="1">
          <mxGeometry x="157.5" y="670" width="95" height="86" as="geometry" />
        </mxCell>
        <mxCell id="7cLqkMVQwKOjkI5-6gQO-35" value="   " style="text;strokeColor=none;fillColor=none;align=left;verticalAlign=top;spacingLeft=4;spacingRight=4;overflow=hidden;rotatable=0;points=[[0,0.5],[1,0.5]];portConstraint=eastwest;" vertex="1" parent="7cLqkMVQwKOjkI5-6gQO-34">
          <mxGeometry y="26" width="95" height="26" as="geometry" />
        </mxCell>
        <mxCell id="7cLqkMVQwKOjkI5-6gQO-36" value="" style="line;strokeWidth=1;fillColor=none;align=left;verticalAlign=middle;spacingTop=-1;spacingLeft=3;spacingRight=3;rotatable=0;labelPosition=right;points=[];portConstraint=eastwest;" vertex="1" parent="7cLqkMVQwKOjkI5-6gQO-34">
          <mxGeometry y="52" width="95" height="8" as="geometry" />
        </mxCell>
        <mxCell id="7cLqkMVQwKOjkI5-6gQO-37" value="+ draw(): " style="text;strokeColor=none;fillColor=none;align=left;verticalAlign=top;spacingLeft=4;spacingRight=4;overflow=hidden;rotatable=0;points=[[0,0.5],[1,0.5]];portConstraint=eastwest;" vertex="1" parent="7cLqkMVQwKOjkI5-6gQO-34">
          <mxGeometry y="60" width="95" height="26" as="geometry" />
        </mxCell>
        <mxCell id="7cLqkMVQwKOjkI5-6gQO-38" style="edgeStyle=orthogonalEdgeStyle;rounded=0;orthogonalLoop=1;jettySize=auto;html=1;endArrow=block;endFill=0;" edge="1" parent="1" source="7cLqkMVQwKOjkI5-6gQO-39" target="7cLqkMVQwKOjkI5-6gQO-32">
          <mxGeometry relative="1" as="geometry">
            <Array as="points">
              <mxPoint x="323" y="640" />
              <mxPoint x="205" y="640" />
            </Array>
          </mxGeometry>
        </mxCell>
        <mxCell id="7cLqkMVQwKOjkI5-6gQO-39" value="Square" style="swimlane;fontStyle=1;align=center;verticalAlign=top;childLayout=stackLayout;horizontal=1;startSize=26;horizontalStack=0;resizeParent=1;resizeParentMax=0;resizeLast=0;collapsible=1;marginBottom=0;" vertex="1" parent="1">
          <mxGeometry x="270" y="670" width="105" height="86" as="geometry" />
        </mxCell>
        <mxCell id="7cLqkMVQwKOjkI5-6gQO-40" value="   " style="text;strokeColor=none;fillColor=none;align=left;verticalAlign=top;spacingLeft=4;spacingRight=4;overflow=hidden;rotatable=0;points=[[0,0.5],[1,0.5]];portConstraint=eastwest;" vertex="1" parent="7cLqkMVQwKOjkI5-6gQO-39">
          <mxGeometry y="26" width="105" height="26" as="geometry" />
        </mxCell>
        <mxCell id="7cLqkMVQwKOjkI5-6gQO-41" value="" style="line;strokeWidth=1;fillColor=none;align=left;verticalAlign=middle;spacingTop=-1;spacingLeft=3;spacingRight=3;rotatable=0;labelPosition=right;points=[];portConstraint=eastwest;" vertex="1" parent="7cLqkMVQwKOjkI5-6gQO-39">
          <mxGeometry y="52" width="105" height="8" as="geometry" />
        </mxCell>
        <mxCell id="7cLqkMVQwKOjkI5-6gQO-42" value="+ draw(): " style="text;strokeColor=none;fillColor=none;align=left;verticalAlign=top;spacingLeft=4;spacingRight=4;overflow=hidden;rotatable=0;points=[[0,0.5],[1,0.5]];portConstraint=eastwest;" vertex="1" parent="7cLqkMVQwKOjkI5-6gQO-39">
          <mxGeometry y="60" width="105" height="26" as="geometry" />
        </mxCell>
        <mxCell id="7cLqkMVQwKOjkI5-6gQO-70" style="edgeStyle=orthogonalEdgeStyle;rounded=0;orthogonalLoop=1;jettySize=auto;html=1;entryX=0.47;entryY=0.984;entryDx=0;entryDy=0;entryPerimeter=0;dashed=1;endArrow=open;endFill=0;" edge="1" parent="1" source="7cLqkMVQwKOjkI5-6gQO-43" target="7cLqkMVQwKOjkI5-6gQO-37">
          <mxGeometry relative="1" as="geometry">
            <Array as="points">
              <mxPoint x="202" y="797" />
            </Array>
          </mxGeometry>
        </mxCell>
        <mxCell id="7cLqkMVQwKOjkI5-6gQO-71" style="edgeStyle=orthogonalEdgeStyle;rounded=0;orthogonalLoop=1;jettySize=auto;html=1;entryX=0.491;entryY=0.984;entryDx=0;entryDy=0;entryPerimeter=0;dashed=1;endArrow=open;endFill=0;" edge="1" parent="1" source="7cLqkMVQwKOjkI5-6gQO-43" target="7cLqkMVQwKOjkI5-6gQO-42">
          <mxGeometry relative="1" as="geometry" />
        </mxCell>
        <mxCell id="7cLqkMVQwKOjkI5-6gQO-72" style="edgeStyle=orthogonalEdgeStyle;rounded=0;orthogonalLoop=1;jettySize=auto;html=1;entryX=0.461;entryY=1.027;entryDx=0;entryDy=0;entryPerimeter=0;dashed=1;endArrow=open;endFill=0;" edge="1" parent="1" source="7cLqkMVQwKOjkI5-6gQO-43" target="7cLqkMVQwKOjkI5-6gQO-31">
          <mxGeometry relative="1" as="geometry" />
        </mxCell>
        <mxCell id="7cLqkMVQwKOjkI5-6gQO-73" value="create" style="edgeLabel;html=1;align=center;verticalAlign=middle;resizable=0;points=[];" vertex="1" connectable="0" parent="7cLqkMVQwKOjkI5-6gQO-72">
          <mxGeometry x="-0.7576" y="1" relative="1" as="geometry">
            <mxPoint y="-8" as="offset" />
          </mxGeometry>
        </mxCell>
        <mxCell id="7cLqkMVQwKOjkI5-6gQO-43" value="ShapeFactory" style="swimlane;fontStyle=1;align=center;verticalAlign=top;childLayout=stackLayout;horizontal=1;startSize=26;horizontalStack=0;resizeParent=1;resizeParentMax=0;resizeLast=0;collapsible=1;marginBottom=0;" vertex="1" parent="1">
          <mxGeometry x="450" y="754" width="105" height="86" as="geometry" />
        </mxCell>
        <mxCell id="7cLqkMVQwKOjkI5-6gQO-44" value="   " style="text;strokeColor=none;fillColor=none;align=left;verticalAlign=top;spacingLeft=4;spacingRight=4;overflow=hidden;rotatable=0;points=[[0,0.5],[1,0.5]];portConstraint=eastwest;" vertex="1" parent="7cLqkMVQwKOjkI5-6gQO-43">
          <mxGeometry y="26" width="105" height="26" as="geometry" />
        </mxCell>
        <mxCell id="7cLqkMVQwKOjkI5-6gQO-45" value="" style="line;strokeWidth=1;fillColor=none;align=left;verticalAlign=middle;spacingTop=-1;spacingLeft=3;spacingRight=3;rotatable=0;labelPosition=right;points=[];portConstraint=eastwest;" vertex="1" parent="7cLqkMVQwKOjkI5-6gQO-43">
          <mxGeometry y="52" width="105" height="8" as="geometry" />
        </mxCell>
        <mxCell id="7cLqkMVQwKOjkI5-6gQO-46" value="+ getShape(): " style="text;strokeColor=none;fillColor=none;align=left;verticalAlign=top;spacingLeft=4;spacingRight=4;overflow=hidden;rotatable=0;points=[[0,0.5],[1,0.5]];portConstraint=eastwest;" vertex="1" parent="7cLqkMVQwKOjkI5-6gQO-43">
          <mxGeometry y="60" width="105" height="26" as="geometry" />
        </mxCell>
        <mxCell id="7cLqkMVQwKOjkI5-6gQO-54" style="edgeStyle=orthogonalEdgeStyle;rounded=0;orthogonalLoop=1;jettySize=auto;html=1;entryX=1;entryY=0.5;entryDx=0;entryDy=0;endArrow=open;endFill=0;" edge="1" parent="1" source="7cLqkMVQwKOjkI5-6gQO-47" target="7cLqkMVQwKOjkI5-6gQO-32">
          <mxGeometry relative="1" as="geometry" />
        </mxCell>
        <mxCell id="7cLqkMVQwKOjkI5-6gQO-65" style="edgeStyle=orthogonalEdgeStyle;rounded=0;orthogonalLoop=1;jettySize=auto;html=1;entryX=0.5;entryY=0;entryDx=0;entryDy=0;endArrow=open;endFill=0;" edge="1" parent="1" source="7cLqkMVQwKOjkI5-6gQO-47" target="7cLqkMVQwKOjkI5-6gQO-43">
          <mxGeometry relative="1" as="geometry" />
        </mxCell>
        <mxCell id="7cLqkMVQwKOjkI5-6gQO-47" value="FactoryDemo" style="swimlane;fontStyle=1;align=center;verticalAlign=top;childLayout=stackLayout;horizontal=1;startSize=26;horizontalStack=0;resizeParent=1;resizeParentMax=0;resizeLast=0;collapsible=1;marginBottom=0;" vertex="1" parent="1">
          <mxGeometry x="450" y="552" width="105" height="86" as="geometry" />
        </mxCell>
        <mxCell id="7cLqkMVQwKOjkI5-6gQO-48" value="   " style="text;strokeColor=none;fillColor=none;align=left;verticalAlign=top;spacingLeft=4;spacingRight=4;overflow=hidden;rotatable=0;points=[[0,0.5],[1,0.5]];portConstraint=eastwest;" vertex="1" parent="7cLqkMVQwKOjkI5-6gQO-47">
          <mxGeometry y="26" width="105" height="26" as="geometry" />
        </mxCell>
        <mxCell id="7cLqkMVQwKOjkI5-6gQO-49" value="" style="line;strokeWidth=1;fillColor=none;align=left;verticalAlign=middle;spacingTop=-1;spacingLeft=3;spacingRight=3;rotatable=0;labelPosition=right;points=[];portConstraint=eastwest;" vertex="1" parent="7cLqkMVQwKOjkI5-6gQO-47">
          <mxGeometry y="52" width="105" height="8" as="geometry" />
        </mxCell>
        <mxCell id="7cLqkMVQwKOjkI5-6gQO-50" value="+ main(): " style="text;strokeColor=none;fillColor=none;align=left;verticalAlign=top;spacingLeft=4;spacingRight=4;overflow=hidden;rotatable=0;points=[[0,0.5],[1,0.5]];portConstraint=eastwest;" vertex="1" parent="7cLqkMVQwKOjkI5-6gQO-47">
          <mxGeometry y="60" width="105" height="26" as="geometry" />
        </mxCell>
        <mxCell id="7cLqkMVQwKOjkI5-6gQO-51" style="edgeStyle=orthogonalEdgeStyle;rounded=0;orthogonalLoop=1;jettySize=auto;html=1;entryX=1;entryY=0.75;entryDx=0;entryDy=0;endArrow=open;endFill=0;" edge="1" parent="1" source="7cLqkMVQwKOjkI5-6gQO-24" target="7cLqkMVQwKOjkI5-6gQO-5">
          <mxGeometry relative="1" as="geometry">
            <Array as="points">
              <mxPoint x="365" y="118" />
            </Array>
          </mxGeometry>
        </mxCell>
        <mxCell id="7cLqkMVQwKOjkI5-6gQO-55" value="draw" style="edgeLabel;html=1;align=center;verticalAlign=middle;resizable=0;points=[];" vertex="1" connectable="0" parent="7cLqkMVQwKOjkI5-6gQO-51">
          <mxGeometry x="0.2612" y="1" relative="1" as="geometry">
            <mxPoint x="22.57" y="-8.51" as="offset" />
          </mxGeometry>
        </mxCell>
        <mxCell id="7cLqkMVQwKOjkI5-6gQO-58" value="1" style="text;html=1;align=center;verticalAlign=middle;resizable=0;points=[];autosize=1;" vertex="1" parent="1">
          <mxGeometry x="450" y="100" width="20" height="20" as="geometry" />
        </mxCell>
        <mxCell id="7cLqkMVQwKOjkI5-6gQO-59" value="*" style="text;html=1;align=center;verticalAlign=middle;resizable=0;points=[];autosize=1;" vertex="1" parent="1">
          <mxGeometry x="260" y="100" width="20" height="20" as="geometry" />
        </mxCell>
        <mxCell id="7cLqkMVQwKOjkI5-6gQO-62" value="draw&lt;br&gt;" style="text;html=1;align=center;verticalAlign=middle;resizable=0;points=[];autosize=1;" vertex="1" parent="1">
          <mxGeometry x="340" y="576" width="40" height="20" as="geometry" />
        </mxCell>
        <mxCell id="7cLqkMVQwKOjkI5-6gQO-63" value="1" style="text;html=1;align=center;verticalAlign=middle;resizable=0;points=[];autosize=1;" vertex="1" parent="1">
          <mxGeometry x="430" y="577" width="20" height="20" as="geometry" />
        </mxCell>
        <mxCell id="7cLqkMVQwKOjkI5-6gQO-64" value="*" style="text;html=1;align=center;verticalAlign=middle;resizable=0;points=[];autosize=1;" vertex="1" parent="1">
          <mxGeometry x="260" y="580" width="20" height="20" as="geometry" />
        </mxCell>
        <mxCell id="7cLqkMVQwKOjkI5-6gQO-66" value="1" style="text;html=1;align=center;verticalAlign=middle;resizable=0;points=[];autosize=1;" vertex="1" parent="1">
          <mxGeometry x="500" y="734" width="20" height="20" as="geometry" />
        </mxCell>
        <mxCell id="7cLqkMVQwKOjkI5-6gQO-67" value="getShape" style="text;html=1;align=center;verticalAlign=middle;resizable=0;points=[];autosize=1;" vertex="1" parent="1">
          <mxGeometry x="496" y="670" width="70" height="20" as="geometry" />
        </mxCell>
        <mxCell id="7cLqkMVQwKOjkI5-6gQO-74" value="1" style="text;html=1;align=center;verticalAlign=middle;resizable=0;points=[];autosize=1;" vertex="1" parent="1">
          <mxGeometry x="500" y="638" width="20" height="20" as="geometry" />
        </mxCell>
      </root>
    </mxGraphModel>
  </diagram>
</mxfile>
